<svg xmlns="http://www.w3.org/2000/svg" viewBox="0 0 400 300" data-imageid="calculator-c" imageName="Wallet" class="illustrations_image" style="width: 241px;"><g id="_553_wallet_outline" data-name="#553_wallet_outline"><rect x="96.57" y="91.46" width="206.86" height="135.92" rx="12.49" fill="#33ff00" class="target-color"/><path d="M290.94,228.38H109.06a13.5,13.5,0,0,1-13.49-13.49V104a13.5,13.5,0,0,1,13.49-13.49H290.94A13.5,13.5,0,0,1,304.43,104V214.89A13.5,13.5,0,0,1,290.94,228.38ZM109.06,92.46A11.5,11.5,0,0,0,97.57,104V214.89a11.5,11.5,0,0,0,11.49,11.49H290.94a11.5,11.5,0,0,0,11.49-11.49V104a11.5,11.5,0,0,0-11.49-11.49Z" fill="#093f68"/><path d="M126,133.19h86.31a5.06,5.06,0,0,1,5.06,5.06v21.17a0,0,0,0,1,0,0H121a0,0,0,0,1,0,0V138.25A5.06,5.06,0,0,1,126,133.19Z" fill="#f56132"/><path d="M217.39,160.42H121a1,1,0,0,1-1-1V138.25a6.06,6.06,0,0,1,6-6.06h86.31a6.07,6.07,0,0,1,6.06,6.06v21.17A1,1,0,0,1,217.39,160.42Zm-95.42-2h94.42V138.25a4.06,4.06,0,0,0-4.06-4.06H126a4.06,4.06,0,0,0-4,4.06Z" fill="#093f68"/><rect x="176.73" y="133.19" width="19.79" height="26.23" fill="#093f68"/><path d="M196.52,160.42H176.73a1,1,0,0,1-1-1V133.19a1,1,0,0,1,1-1h19.79a1,1,0,0,1,1,1v26.23A1,1,0,0,1,196.52,160.42Zm-18.79-2h17.79V134.19H177.73Z" fill="#093f68"/><path d="M272.19,155.45a17.89,17.89,0,0,1-.44,4H235.44a18.5,18.5,0,0,1-.43-4,18.24,18.24,0,0,1,.89-5.67,18.59,18.59,0,0,1,36.29,5.67Z" fill="#ffbc0e"/><path d="M271.75,160.42H235.44a1,1,0,0,1-1-.78,19.42,19.42,0,0,1,.48-10.17,19.59,19.59,0,0,1,38.24,6,19.21,19.21,0,0,1-.46,4.19A1,1,0,0,1,271.75,160.42Zm-35.49-2h34.67a17.09,17.09,0,0,0,.26-3,17.59,17.59,0,0,0-34.34-5.37,17.24,17.24,0,0,0-.84,5.37A18.13,18.13,0,0,0,236.26,158.42Z" fill="#093f68"/><path d="M245.23,159.42H208.14a18.6,18.6,0,0,1,18.55-17.33,18.32,18.32,0,0,1,9.21,2.46A18.51,18.51,0,0,1,245.23,159.42Z" fill="#ffbc0e"/><path d="M245.23,160.42H208.14a1,1,0,0,1-.73-.31,1,1,0,0,1-.27-.75,19.59,19.59,0,0,1,39.09,0,1,1,0,0,1-.27.75A1,1,0,0,1,245.23,160.42Zm-36-2h34.89a17.65,17.65,0,0,0-17.44-15.33A17.64,17.64,0,0,0,209.24,158.42Z" fill="#093f68"/><path d="M283.61,166.42a1,1,0,0,1-1-1v-5H115v5a1,1,0,0,1-2,0v-6a1,1,0,0,1,1-1H283.61a1,1,0,0,1,1,1v6A1,1,0,0,1,283.61,166.42Z" fill="#093f68"/><path d="M163,160.42H138.58a1,1,0,0,1-1-1.23,13.58,13.58,0,0,1,26.38,0,1,1,0,0,1-1,1.23Zm-23.1-2h21.76a11.59,11.59,0,0,0-21.76,0Z" fill="#093f68"/><polygon points="131.68 110.57 140.59 72.62 277.67 97.01 275.74 114.83 131.68 110.57" fill="#70cc40"/><path d="M275.74,115.83h0l-144.06-4.26a1,1,0,0,1-.94-1.23l8.9-37.95a1,1,0,0,1,1.15-.76L277.85,96a1,1,0,0,1,.82,1.09l-1.94,17.81A1,1,0,0,1,275.74,115.83Zm-142.8-6.23,141.9,4.2,1.74-16L141.35,73.77Z" fill="#093f68"/><polygon points="123.29 84.62 270.1 103.22 269.75 114.83 117.48 114.83 123.29 84.62" fill="#70cc40"/><path d="M269.75,115.83H117.48a1,1,0,0,1-.77-.37,1,1,0,0,1-.21-.82l5.81-30.21a1,1,0,0,1,1.1-.8l146.82,18.6a1,1,0,0,1,.87,1l-.35,11.61A1,1,0,0,1,269.75,115.83Zm-151.06-2H268.78l.29-9.73-145-18.37Z" fill="#093f68"/><path d="M279.73,194.4H220.87a1,1,0,0,1,0-2h58.86a1,1,0,0,1,0,2Z" fill="#093f68"/><path d="M279.73,204.86H220.87a1,1,0,0,1,0-2h58.86a1,1,0,0,1,0,2Z" fill="#093f68"/><path d="M283.61,121.83a1,1,0,0,1-1-1v-5H115v5a1,1,0,0,1-2,0v-6a1,1,0,0,1,1-1H283.61a1,1,0,0,1,1,1v6A1,1,0,0,1,283.61,121.83Z" fill="#093f68"/></g></svg>